<svg width="1186" height="305" viewBox="0 0 1186 305" fill="none" xmlns="http://www.w3.org/2000/svg">
<path d="M85.7295 129.625H56.1045V199H32.9795V129.625H3.35449V109H85.7295V129.625ZM140.963 126.875C146.63 126.875 151.63 128.042 155.963 130.375C160.38 132.625 163.796 135.833 166.213 140C168.63 144.083 169.838 148.875 169.838 154.375V199H147.588V159.5C147.588 155.333 146.421 152.167 144.088 150C141.838 147.833 138.63 146.75 134.463 146.75C130.213 146.75 126.796 147.875 124.213 150.125C121.63 152.292 120.338 155.375 120.338 159.375V199H98.0879V105H120.338V134.375C122.921 131.792 126.005 129.917 129.588 128.75C133.171 127.5 136.963 126.875 140.963 126.875ZM258.351 164.625C258.351 167.042 258.142 169.208 257.726 171.125H203.476C204.809 174.792 207.184 177.625 210.601 179.625C214.017 181.625 218.309 182.625 223.476 182.625C226.976 182.625 230.142 182.125 232.976 181.125C235.809 180.042 238.892 178.25 242.226 175.75L253.601 189.875C250.517 193.042 246.392 195.625 241.226 197.625C236.142 199.625 230.142 200.625 223.226 200.625C214.559 200.625 207.101 199 200.851 195.75C194.601 192.5 189.851 188.083 186.601 182.5C183.351 176.917 181.726 170.708 181.726 163.875C181.726 157.208 183.267 151.083 186.351 145.5C189.434 139.833 193.892 135.333 199.726 132C205.559 128.583 212.392 126.875 220.226 126.875C228.059 126.875 234.851 128.583 240.601 132C246.351 135.333 250.726 139.875 253.726 145.625C256.809 151.375 258.351 157.708 258.351 164.625ZM220.351 145.25C216.101 145.25 212.476 146.25 209.476 148.25C206.559 150.167 204.517 152.917 203.351 156.5H236.851C235.767 152.917 233.809 150.167 230.976 148.25C228.142 146.25 224.601 145.25 220.351 145.25ZM349.424 166.125H331.799V199H309.049V109H360.299C366.549 109 371.965 110.292 376.549 112.875C381.132 115.458 384.59 118.917 386.924 123.25C389.34 127.583 390.549 132.375 390.549 137.625C390.549 143.625 389.007 149 385.924 153.75C382.924 158.417 378.674 161.792 373.174 163.875L397.674 199H371.299L349.424 166.125ZM331.799 146.375H357.299C360.299 146.375 362.674 145.583 364.424 144C366.257 142.417 367.174 140.292 367.174 137.625C367.174 135.042 366.257 132.958 364.424 131.375C362.674 129.792 360.299 129 357.299 129H331.799V146.375ZM486.304 199H407.804V109H485.054L482.429 128.875H430.804V143H466.429V163.125H430.804V179.125H483.679L486.304 199ZM558.481 180.75H520.606L513.856 199H490.106L525.356 109H553.856L589.231 199H565.231L558.481 180.75ZM551.356 161.375L539.481 129.375L527.731 161.375H551.356ZM672.329 178.5V199H599.454V109H622.454V178.5H672.329ZM832.745 199H810.37V137.375L785.245 198.125H769.995L745.12 139.25V199H722.745V109H753.745L778.245 167.25L801.745 109H832.745V199ZM911.387 180.75H873.512L866.762 199H843.012L878.262 109H906.762L942.137 199H918.137L911.387 180.75ZM904.262 161.375L892.387 129.375L880.637 161.375H904.262ZM1036.82 190.125C1032.74 193.208 1027.32 195.75 1020.57 197.75C1013.91 199.667 1006.45 200.625 998.197 200.625C987.697 200.625 978.322 198.667 970.072 194.75C961.906 190.75 955.531 185.25 950.947 178.25C946.364 171.25 944.072 163.292 944.072 154.375C944.072 145.292 946.322 137.208 950.822 130.125C955.322 122.958 961.489 117.375 969.322 113.375C977.239 109.375 986.114 107.375 995.947 107.375C1004.11 107.375 1011.53 108.542 1018.2 110.875C1024.95 113.125 1030.61 116.375 1035.2 120.625L1022.32 137.125C1014.57 130.958 1005.82 127.875 996.072 127.875C990.989 127.875 986.281 129 981.947 131.25C977.697 133.5 974.322 136.625 971.822 140.625C969.322 144.542 968.072 149 968.072 154C968.072 159 969.364 163.5 971.947 167.5C974.531 171.5 978.156 174.625 982.822 176.875C987.489 179.042 992.781 180.125 998.697 180.125C1004.28 180.125 1009.45 179.25 1014.2 177.5V164.875H990.947V144.875H1036.82V190.125ZM1077.79 109V199H1054.79V109H1077.79ZM1144.99 200.625C1135.07 200.625 1126.16 198.583 1118.24 194.5C1110.41 190.417 1104.28 184.833 1099.86 177.75C1095.53 170.667 1093.36 162.75 1093.36 154C1093.36 145.25 1095.57 137.333 1099.99 130.25C1104.41 123.167 1110.49 117.583 1118.24 113.5C1126.07 109.417 1134.91 107.375 1144.74 107.375C1152.57 107.375 1159.78 108.667 1166.36 111.25C1173.03 113.75 1178.41 117.417 1182.49 122.25L1167.99 138.25C1164.41 134.583 1160.82 132 1157.24 130.5C1153.74 129 1149.82 128.25 1145.49 128.25C1140.07 128.25 1135.24 129.375 1130.99 131.625C1126.74 133.875 1123.41 136.958 1120.99 140.875C1118.57 144.792 1117.36 149.167 1117.36 154C1117.36 158.833 1118.53 163.208 1120.86 167.125C1123.28 171.042 1126.61 174.125 1130.86 176.375C1135.2 178.625 1140.11 179.75 1145.61 179.75C1149.86 179.75 1153.86 179.042 1157.61 177.625C1161.45 176.125 1165.11 173.583 1168.61 170L1183.11 185.625C1178.95 190.625 1173.49 194.375 1166.74 196.875C1160.07 199.375 1152.82 200.625 1144.99 200.625Z" fill="white"/>
<path d="M434.402 20.6V71H427.402V47.13H395.902V71H388.902V20.6H395.902V40.9H427.402V20.6H434.402ZM470.731 71.91C465.644 71.91 461.094 70.79 457.081 68.55C453.067 66.31 449.917 63.2067 447.631 59.24C445.391 55.2733 444.271 50.7933 444.271 45.8C444.271 40.8067 445.391 36.3267 447.631 32.36C449.917 28.3933 453.067 25.29 457.081 23.05C461.094 20.81 465.644 19.69 470.731 19.69C475.817 19.69 480.367 20.81 484.381 23.05C488.394 25.29 491.521 28.3933 493.761 32.36C496.047 36.3267 497.191 40.8067 497.191 45.8C497.191 50.7933 496.047 55.2733 493.761 59.24C491.521 63.2067 488.394 66.31 484.381 68.55C480.367 70.79 475.817 71.91 470.731 71.91ZM470.731 65.54C474.417 65.54 477.707 64.7 480.601 63.02C483.541 61.34 485.827 59.0067 487.461 56.02C489.094 52.9867 489.911 49.58 489.911 45.8C489.911 42.02 489.094 38.6367 487.461 35.65C485.827 32.6167 483.541 30.26 480.601 28.58C477.707 26.9 474.417 26.06 470.731 26.06C467.044 26.06 463.731 26.9 460.791 28.58C457.897 30.26 455.634 32.6167 454.001 35.65C452.367 38.6367 451.551 42.02 451.551 45.8C451.551 49.58 452.367 52.9867 454.001 56.02C455.634 59.0067 457.897 61.34 460.791 63.02C463.731 64.7 467.044 65.54 470.731 65.54ZM544.617 64.7V71H507.027V20.6H514.027V64.7H544.617ZM573.605 20.6C578.971 20.6 583.615 21.6733 587.535 23.82C591.501 25.9667 594.535 28.9533 596.635 32.78C598.781 36.6067 599.855 40.9467 599.855 45.8C599.855 50.6533 598.781 54.9933 596.635 58.82C594.535 62.6467 591.501 65.6333 587.535 67.78C583.615 69.9267 578.971 71 573.605 71H553.375V20.6H573.605ZM573.535 64.77C577.455 64.77 580.838 63.9767 583.685 62.39C586.578 60.7567 588.771 58.5167 590.265 55.67C591.805 52.8233 592.575 49.5333 592.575 45.8C592.575 42.0667 591.805 38.7767 590.265 35.93C588.771 33.0833 586.578 30.8667 583.685 29.28C580.838 27.6467 577.455 26.83 573.535 26.83H560.375V64.77H573.535ZM654.754 71.91C649.668 71.91 645.118 70.79 641.104 68.55C637.091 66.31 633.941 63.2067 631.654 59.24C629.414 55.2733 628.294 50.7933 628.294 45.8C628.294 40.8067 629.414 36.3267 631.654 32.36C633.941 28.3933 637.091 25.29 641.104 23.05C645.118 20.81 649.668 19.69 654.754 19.69C659.841 19.69 664.391 20.81 668.404 23.05C672.418 25.29 675.544 28.3933 677.784 32.36C680.071 36.3267 681.214 40.8067 681.214 45.8C681.214 50.7933 680.071 55.2733 677.784 59.24C675.544 63.2067 672.418 66.31 668.404 68.55C664.391 70.79 659.841 71.91 654.754 71.91ZM654.754 65.54C658.441 65.54 661.731 64.7 664.624 63.02C667.564 61.34 669.851 59.0067 671.484 56.02C673.118 52.9867 673.934 49.58 673.934 45.8C673.934 42.02 673.118 38.6367 671.484 35.65C669.851 32.6167 667.564 30.26 664.624 28.58C661.731 26.9 658.441 26.06 654.754 26.06C651.068 26.06 647.754 26.9 644.814 28.58C641.921 30.26 639.658 32.6167 638.024 35.65C636.391 38.6367 635.574 42.02 635.574 45.8C635.574 49.58 636.391 52.9867 638.024 56.02C639.658 59.0067 641.921 61.34 644.814 63.02C647.754 64.7 651.068 65.54 654.754 65.54ZM735.29 20.6V71H728.01L697.84 30.47V71H691.05V20.6H698.54L728.5 60.85V20.6H735.29ZM748.479 20.6H756.249L754.569 54.9H750.229L748.479 20.6ZM752.399 71.49C751.045 71.49 749.949 71.07 749.109 70.23C748.269 69.39 747.849 68.2933 747.849 66.94C747.849 65.5867 748.269 64.49 749.109 63.65C749.949 62.81 751.045 62.39 752.399 62.39C753.752 62.39 754.849 62.81 755.689 63.65C756.529 64.49 756.949 65.5867 756.949 66.94C756.949 68.2933 756.529 69.39 755.689 70.23C754.849 71.07 753.752 71.49 752.399 71.49ZM769.739 20.6H777.509L775.829 54.9H771.489L769.739 20.6ZM773.659 71.49C772.305 71.49 771.209 71.07 770.369 70.23C769.529 69.39 769.109 68.2933 769.109 66.94C769.109 65.5867 769.529 64.49 770.369 63.65C771.209 62.81 772.305 62.39 773.659 62.39C775.012 62.39 776.109 62.81 776.949 63.65C777.789 64.49 778.209 65.5867 778.209 66.94C778.209 68.2933 777.789 69.39 776.949 70.23C776.109 71.07 775.012 71.49 773.659 71.49ZM790.998 20.6H798.768L797.088 54.9H792.748L790.998 20.6ZM794.918 71.49C793.565 71.49 792.468 71.07 791.628 70.23C790.788 69.39 790.368 68.2933 790.368 66.94C790.368 65.5867 790.788 64.49 791.628 63.65C792.468 62.81 793.565 62.39 794.918 62.39C796.272 62.39 797.368 62.81 798.208 63.65C799.048 64.49 799.468 65.5867 799.468 66.94C799.468 68.2933 799.048 69.39 798.208 70.23C797.368 71.07 796.272 71.49 794.918 71.49Z" fill="white"/>
<path d="M103.946 241.6V292H96.9459V241.6H103.946ZM135.789 292.77C131.495 292.77 127.365 292.093 123.399 290.74C119.432 289.387 116.142 287.543 113.529 285.21L117.939 279.89C120.412 282.037 123.212 283.67 126.339 284.79C129.465 285.91 132.639 286.47 135.859 286.47C139.779 286.47 142.975 285.677 145.449 284.09C147.922 282.503 149.159 280.427 149.159 277.86C149.159 275.947 148.365 274.36 146.779 273.1C145.192 271.793 142.719 270.813 139.359 270.16L128.719 268.13C124.239 267.243 120.832 265.727 118.499 263.58C116.212 261.387 115.069 258.633 115.069 255.32C115.069 252.38 115.955 249.813 117.729 247.62C119.502 245.427 121.929 243.747 125.009 242.58C128.135 241.367 131.659 240.76 135.579 240.76C139.172 240.76 142.649 241.297 146.009 242.37C149.415 243.443 152.425 245.17 155.039 247.55L150.909 252.66C148.575 250.7 146.055 249.277 143.349 248.39C140.689 247.457 138.005 246.99 135.299 246.99C132.872 246.99 130.655 247.34 128.649 248.04C126.642 248.693 125.055 249.627 123.889 250.84C122.722 252.007 122.139 253.36 122.139 254.9C122.139 256.533 122.885 257.91 124.379 259.03C125.919 260.103 128.322 260.943 131.589 261.55L141.809 263.51C146.615 264.443 150.209 266.147 152.589 268.62C155.015 271.047 156.229 274.01 156.229 277.51C156.229 280.543 155.389 283.203 153.709 285.49C152.075 287.777 149.695 289.573 146.569 290.88C143.489 292.14 139.895 292.77 135.789 292.77ZM233.286 241.6V292H226.286V268.13H194.786V292H187.786V241.6H194.786V261.9H226.286V241.6H233.286ZM279.415 278.56H254.285L248.825 292H241.475L262.615 241.6H271.225L292.295 292H284.805L279.415 278.56ZM276.965 272.54L266.885 247.55L256.735 272.54H276.965ZM325.08 241.6C328.674 241.6 331.73 242.253 334.25 243.56C336.77 244.82 338.684 246.593 339.99 248.88C341.297 251.12 341.95 253.687 341.95 256.58C341.95 259.473 341.297 262.063 339.99 264.35C338.684 266.637 336.747 268.433 334.18 269.74C331.66 271 328.627 271.63 325.08 271.63H307.51V292H300.51V241.6H325.08ZM324.87 265.4C328.044 265.4 330.494 264.607 332.22 263.02C333.994 261.433 334.88 259.287 334.88 256.58C334.88 253.873 333.994 251.75 332.22 250.21C330.494 248.623 328.044 247.83 324.87 247.83H307.51V265.4H324.87ZM375.666 241.6C379.26 241.6 382.316 242.253 384.836 243.56C387.356 244.82 389.27 246.593 390.576 248.88C391.883 251.12 392.536 253.687 392.536 256.58C392.536 259.473 391.883 262.063 390.576 264.35C389.27 266.637 387.333 268.433 384.766 269.74C382.246 271 379.213 271.63 375.666 271.63H358.096V292H351.096V241.6H375.666ZM375.456 265.4C378.63 265.4 381.08 264.607 382.806 263.02C384.58 261.433 385.466 259.287 385.466 256.58C385.466 253.873 384.58 251.75 382.806 250.21C381.08 248.623 378.63 247.83 375.456 247.83H358.096V265.4H375.456ZM441.722 292H401.682V241.6H441.022L439.762 247.76H408.682V262.53H430.032V268.76H408.682V285.84H440.462L441.722 292ZM494.594 241.6V292H487.314L457.144 251.47V292H450.354V241.6H457.844L487.804 281.85V241.6H494.594ZM514.923 241.6V292H507.923V241.6H514.923ZM572.455 241.6V292H565.175L535.005 251.47V292H528.215V241.6H535.705L565.665 281.85V241.6H572.455ZM631.354 286.82C628.834 288.873 625.894 290.413 622.534 291.44C619.174 292.42 615.254 292.91 610.774 292.91C605.314 292.91 600.414 291.79 596.074 289.55C591.78 287.31 588.42 284.23 585.994 280.31C583.567 276.343 582.354 271.863 582.354 266.87C582.354 261.877 583.544 257.397 585.924 253.43C588.35 249.417 591.664 246.29 595.864 244.05C600.11 241.81 604.87 240.69 610.144 240.69C614.25 240.69 617.984 241.297 621.344 242.51C624.704 243.677 627.48 245.287 629.674 247.34L625.544 252.45C623.77 250.863 621.554 249.58 618.894 248.6C616.28 247.573 613.364 247.06 610.144 247.06C606.317 247.06 602.84 247.9 599.714 249.58C596.587 251.26 594.114 253.617 592.294 256.65C590.52 259.637 589.634 263.02 589.634 266.8C589.634 270.58 590.544 273.987 592.364 277.02C594.184 280.007 596.704 282.34 599.924 284.02C603.19 285.7 606.877 286.54 610.984 286.54C613.877 286.54 616.35 286.307 618.404 285.84C620.504 285.327 622.51 284.51 624.424 283.39V269.95H608.744V263.79H631.354V286.82ZM686.374 270.65H671.044V292H664.114V241.6H690.504C693.63 241.6 696.36 242.253 698.694 243.56C701.074 244.82 702.894 246.547 704.154 248.74C705.414 250.933 706.044 253.407 706.044 256.16C706.044 259.707 704.97 262.787 702.824 265.4C700.677 267.967 697.784 269.6 694.144 270.3L709.124 292H700.794L686.374 270.65ZM671.044 264.49H689.454C692.394 264.49 694.704 263.72 696.384 262.18C698.11 260.64 698.974 258.633 698.974 256.16C698.974 253.64 698.134 251.633 696.454 250.14C694.774 248.6 692.44 247.83 689.454 247.83H671.044V264.49ZM724.991 241.6V292H717.991V241.6H724.991ZM784.274 286.82C781.754 288.873 778.814 290.413 775.454 291.44C772.094 292.42 768.174 292.91 763.694 292.91C758.234 292.91 753.334 291.79 748.994 289.55C744.7 287.31 741.34 284.23 738.914 280.31C736.487 276.343 735.274 271.863 735.274 266.87C735.274 261.877 736.464 257.397 738.844 253.43C741.27 249.417 744.584 246.29 748.784 244.05C753.03 241.81 757.79 240.69 763.064 240.69C767.17 240.69 770.904 241.297 774.264 242.51C777.624 243.677 780.4 245.287 782.594 247.34L778.464 252.45C776.69 250.863 774.474 249.58 771.814 248.6C769.2 247.573 766.284 247.06 763.064 247.06C759.237 247.06 755.76 247.9 752.634 249.58C749.507 251.26 747.034 253.617 745.214 256.65C743.44 259.637 742.554 263.02 742.554 266.8C742.554 270.58 743.464 273.987 745.284 277.02C747.104 280.007 749.624 282.34 752.844 284.02C756.11 285.7 759.797 286.54 763.904 286.54C766.797 286.54 769.27 286.307 771.324 285.84C773.424 285.327 775.43 284.51 777.344 283.39V269.95H761.664V263.79H784.274V286.82ZM841.069 241.6V292H834.069V268.13H802.569V292H795.569V241.6H802.569V261.9H834.069V241.6H841.069ZM892.308 247.9H874.528V292H867.528V247.9H849.748V241.6H892.308V247.9ZM964.838 241.6V292H957.558L927.388 251.47V292H920.598V241.6H928.088L958.048 281.85V241.6H964.838ZM1001.2 292.91C996.11 292.91 991.56 291.79 987.547 289.55C983.533 287.31 980.383 284.207 978.097 280.24C975.857 276.273 974.737 271.793 974.737 266.8C974.737 261.807 975.857 257.327 978.097 253.36C980.383 249.393 983.533 246.29 987.547 244.05C991.56 241.81 996.11 240.69 1001.2 240.69C1006.28 240.69 1010.83 241.81 1014.85 244.05C1018.86 246.29 1021.99 249.393 1024.23 253.36C1026.51 257.327 1027.66 261.807 1027.66 266.8C1027.66 271.793 1026.51 276.273 1024.23 280.24C1021.99 284.207 1018.86 287.31 1014.85 289.55C1010.83 291.79 1006.28 292.91 1001.2 292.91ZM1001.2 286.54C1004.88 286.54 1008.17 285.7 1011.07 284.02C1014.01 282.34 1016.29 280.007 1017.93 277.02C1019.56 273.987 1020.38 270.58 1020.38 266.8C1020.38 263.02 1019.56 259.637 1017.93 256.65C1016.29 253.617 1014.01 251.26 1011.07 249.58C1008.17 247.9 1004.88 247.06 1001.2 247.06C997.51 247.06 994.197 247.9 991.257 249.58C988.363 251.26 986.1 253.617 984.467 256.65C982.833 259.637 982.017 263.02 982.017 266.8C982.017 270.58 982.833 273.987 984.467 277.02C986.1 280.007 988.363 282.34 991.257 284.02C994.197 285.7 997.51 286.54 1001.2 286.54ZM1106.7 241.6L1089.55 292H1081.01L1068.9 251.19L1056.93 292H1048.39L1031.17 241.6H1038.73L1052.8 284.72L1065.33 241.81H1072.68L1085.35 284.65L1099.35 241.6H1106.7Z" fill="white"/>
</svg>
