<svg width="830" height="299" viewBox="0 0 830 299" fill="none" xmlns="http://www.w3.org/2000/svg">
<path d="M84.3265 260.3C68.2265 260.3 52.9698 258 38.5565 253.4C24.2965 248.647 12.8732 242.207 4.28648 234.08L29.5865 203.03C44.9198 216.677 63.2432 223.5 84.5565 223.5C93.7565 223.5 100.886 222.043 105.946 219.13C111.16 216.063 113.766 212.383 113.766 208.09C113.766 201.343 108.4 197.203 97.6665 195.67L62.2465 190.15C27.8998 184.63 10.7265 168.607 10.7265 142.08C10.7265 131.5 13.5632 122.3 19.2365 114.48C24.9098 106.507 33.1898 100.373 44.0765 96.08C55.1165 91.7867 68.3798 89.64 83.8665 89.64C97.5132 89.64 110.776 91.6333 123.656 95.62C136.536 99.4533 147.423 105.357 156.316 113.33L132.396 143.92C124.883 138.093 117.216 133.723 109.396 130.81C101.73 127.897 93.5265 126.44 84.7865 126.44C75.7398 126.44 68.4565 127.743 62.9365 130.35C57.5698 132.803 54.8865 135.793 54.8865 139.32C54.8865 144.993 59.6398 148.597 69.1465 150.13L109.166 156.57C125.88 159.177 138.223 164.697 146.196 173.13C154.323 181.563 158.386 192.067 158.386 204.64C158.386 215.833 155.396 225.647 149.416 234.08C143.59 242.36 135.08 248.8 123.886 253.4C112.846 258 99.6598 260.3 84.3265 260.3ZM320.538 130.35H266.028V258H223.478V130.35H168.968V92.4H320.538V130.35ZM431.671 224.42H361.981L349.561 258H305.861L370.721 92.4H423.161L488.251 258H444.091L431.671 224.42ZM418.561 188.77L396.711 129.89L375.091 188.77H418.561ZM581.351 197.51H548.921V258H507.061V92.4H601.361C612.861 92.4 622.828 94.7767 631.261 99.53C639.694 104.283 646.058 110.647 650.351 118.62C654.798 126.593 657.021 135.41 657.021 145.07C657.021 156.11 654.184 166 648.511 174.74C642.991 183.327 635.171 189.537 625.051 193.37L670.131 258H621.601L581.351 197.51ZM548.921 161.17H595.841C601.361 161.17 605.731 159.713 608.951 156.8C612.324 153.887 614.011 149.977 614.011 145.07C614.011 140.317 612.324 136.483 608.951 133.57C605.731 130.657 601.361 129.2 595.841 129.2H548.921V161.17ZM823.888 130.35H769.378V258H726.828V130.35H672.318V92.4H823.888V130.35Z" fill="white"/>
<path d="M37.3603 21.04C40.851 21.04 43.8203 21.6747 46.2683 22.944C48.7163 24.168 50.575 25.8907 51.8443 28.112C53.1137 30.288 53.7483 32.7813 53.7483 35.592C53.7483 38.4027 53.1137 40.9187 51.8443 43.14C50.575 45.3613 48.6937 47.1067 46.2003 48.376C43.7523 49.6 40.8057 50.212 37.3603 50.212H20.2923V70H13.4923V21.04H37.3603ZM37.1563 44.16C40.239 44.16 42.619 43.3893 44.2963 41.848C46.019 40.3067 46.8803 38.2213 46.8803 35.592C46.8803 32.9627 46.019 30.9 44.2963 29.404C42.619 27.8627 40.239 27.092 37.1563 27.092H20.2923V44.16H37.1563ZM84.257 49.26H69.365V70H62.633V21.04H88.269C91.3063 21.04 93.9583 21.6747 96.225 22.944C98.537 24.168 100.305 25.8453 101.529 27.976C102.753 30.1067 103.365 32.5093 103.365 35.184C103.365 38.6293 102.322 41.6213 100.237 44.16C98.1516 46.6533 95.341 48.24 91.805 48.92L106.357 70H98.265L84.257 49.26ZM69.365 43.276H87.249C90.105 43.276 92.349 42.528 93.981 41.032C95.6583 39.536 96.497 37.5867 96.497 35.184C96.497 32.736 95.681 30.7867 94.049 29.336C92.417 27.84 90.1503 27.092 87.249 27.092H69.365V43.276ZM153.459 70H114.563V21.04H152.779L151.555 27.024H121.363V41.372H142.103V47.424H121.363V64.016H152.235L153.459 70ZM178.801 70.748C174.631 70.748 170.619 70.0907 166.765 68.776C162.912 67.4613 159.716 65.6707 157.177 63.404L161.461 58.236C163.864 60.3213 166.584 61.908 169.621 62.996C172.659 64.084 175.741 64.628 178.869 64.628C182.677 64.628 185.783 63.8573 188.185 62.316C190.588 60.7747 191.789 58.7573 191.789 56.264C191.789 54.4053 191.019 52.864 189.477 51.64C187.936 50.3707 185.533 49.4187 182.269 48.784L171.933 46.812C167.581 45.9507 164.272 44.4773 162.005 42.392C159.784 40.2613 158.673 37.5867 158.673 34.368C158.673 31.512 159.535 29.0187 161.257 26.888C162.98 24.7573 165.337 23.1253 168.329 21.992C171.367 20.8133 174.789 20.224 178.597 20.224C182.088 20.224 185.465 20.7453 188.729 21.788C192.039 22.8307 194.963 24.508 197.501 26.82L193.489 31.784C191.223 29.88 188.775 28.4973 186.145 27.636C183.561 26.7293 180.955 26.276 178.325 26.276C175.968 26.276 173.815 26.616 171.865 27.296C169.916 27.9307 168.375 28.8373 167.241 30.016C166.108 31.1493 165.541 32.464 165.541 33.96C165.541 35.5467 166.267 36.884 167.717 37.972C169.213 39.0147 171.548 39.8307 174.721 40.42L184.649 42.324C189.319 43.2307 192.809 44.8853 195.121 47.288C197.479 49.6453 198.657 52.524 198.657 55.924C198.657 58.8707 197.841 61.4547 196.209 63.676C194.623 65.8973 192.311 67.6427 189.273 68.912C186.281 70.136 182.791 70.748 178.801 70.748ZM225.485 70.748C221.314 70.748 217.302 70.0907 213.449 68.776C209.596 67.4613 206.4 65.6707 203.861 63.404L208.145 58.236C210.548 60.3213 213.268 61.908 216.305 62.996C219.342 64.084 222.425 64.628 225.553 64.628C229.361 64.628 232.466 63.8573 234.869 62.316C237.272 60.7747 238.473 58.7573 238.473 56.264C238.473 54.4053 237.702 52.864 236.161 51.64C234.62 50.3707 232.217 49.4187 228.953 48.784L218.617 46.812C214.265 45.9507 210.956 44.4773 208.689 42.392C206.468 40.2613 205.357 37.5867 205.357 34.368C205.357 31.512 206.218 29.0187 207.941 26.888C209.664 24.7573 212.021 23.1253 215.013 21.992C218.05 20.8133 221.473 20.224 225.281 20.224C228.772 20.224 232.149 20.7453 235.413 21.788C238.722 22.8307 241.646 24.508 244.185 26.82L240.173 31.784C237.906 29.88 235.458 28.4973 232.829 27.636C230.245 26.7293 227.638 26.276 225.009 26.276C222.652 26.276 220.498 26.616 218.549 27.296C216.6 27.9307 215.058 28.8373 213.925 30.016C212.792 31.1493 212.225 32.464 212.225 33.96C212.225 35.5467 212.95 36.884 214.401 37.972C215.897 39.0147 218.232 39.8307 221.405 40.42L231.333 42.324C236.002 43.2307 239.493 44.8853 241.805 47.288C244.162 49.6453 245.341 52.524 245.341 55.924C245.341 58.8707 244.525 61.4547 242.893 63.676C241.306 65.8973 238.994 67.6427 235.957 68.912C232.965 70.136 229.474 70.748 225.485 70.748ZM306.702 56.944H282.29L276.986 70H269.846L290.382 21.04H298.746L319.214 70H311.938L306.702 56.944ZM304.322 51.096L294.53 26.82L284.67 51.096H304.322ZM370.171 21.04V70H363.099L333.791 30.628V70H327.195V21.04H334.471L363.575 60.14V21.04H370.171ZM404.267 53.272V70H397.467V53.408L377.271 21.04H385.159L400.935 47.016L416.711 21.04H424.327L404.267 53.272ZM499.948 21.04L483.288 70H474.992L463.228 30.356L451.6 70H443.304L426.576 21.04H433.92L447.588 62.928L459.76 21.244H466.9L479.208 62.86L492.808 21.04H499.948ZM552.552 21.04V70H545.752V46.812H515.152V70H508.352V21.04H515.152V40.76H545.752V21.04H552.552ZM603.959 70H565.063V21.04H603.279L602.055 27.024H571.863V41.372H592.603V47.424H571.863V64.016H602.735L603.959 70ZM633.968 49.26H619.076V70H612.344V21.04H637.98C641.017 21.04 643.669 21.6747 645.936 22.944C648.248 24.168 650.016 25.8453 651.24 27.976C652.464 30.1067 653.076 32.5093 653.076 35.184C653.076 38.6293 652.033 41.6213 649.948 44.16C647.863 46.6533 645.052 48.24 641.516 48.92L656.068 70H647.976L633.968 49.26ZM619.076 43.276H636.96C639.816 43.276 642.06 42.528 643.692 41.032C645.369 39.536 646.208 37.5867 646.208 35.184C646.208 32.736 645.392 30.7867 643.76 29.336C642.128 27.84 639.861 27.092 636.96 27.092H619.076V43.276ZM703.17 70H664.274V21.04H702.49L701.266 27.024H671.074V41.372H691.814V47.424H671.074V64.016H701.946L703.17 70ZM767.877 27.16H750.605V70H743.805V27.16H726.533V21.04H767.877V27.16ZM795.761 70.884C790.819 70.884 786.399 69.796 782.501 67.62C778.602 65.444 775.542 62.4293 773.321 58.576C771.145 54.7227 770.057 50.3707 770.057 45.52C770.057 40.6693 771.145 36.3173 773.321 32.464C775.542 28.6107 778.602 25.596 782.501 23.42C786.399 21.244 790.819 20.156 795.761 20.156C800.702 20.156 805.122 21.244 809.021 23.42C812.919 25.596 815.957 28.6107 818.133 32.464C820.354 36.3173 821.465 40.6693 821.465 45.52C821.465 50.3707 820.354 54.7227 818.133 58.576C815.957 62.4293 812.919 65.444 809.021 67.62C805.122 69.796 800.702 70.884 795.761 70.884ZM795.761 64.696C799.342 64.696 802.538 63.88 805.349 62.248C808.205 60.616 810.426 58.3493 812.013 55.448C813.599 52.5013 814.393 49.192 814.393 45.52C814.393 41.848 813.599 38.5613 812.013 35.66C810.426 32.7133 808.205 30.424 805.349 28.792C802.538 27.16 799.342 26.344 795.761 26.344C792.179 26.344 788.961 27.16 786.105 28.792C783.294 30.424 781.095 32.7133 779.509 35.66C777.922 38.5613 777.129 41.848 777.129 45.52C777.129 49.192 777.922 52.5013 779.509 55.448C781.095 58.3493 783.294 60.616 786.105 62.248C788.961 63.88 792.179 64.696 795.761 64.696Z" fill="white"/>
</svg>
